<?xml version="1.0" encoding="iso-8859-1"?>
<!-- Generator: Adobe Illustrator 19.0.0, SVG Export Plug-In . SVG Version: 6.00 Build 0)  -->
<svg version="1.1" id="Capa_1" xmlns="http://www.w3.org/2000/svg" xmlns:xlink="http://www.w3.org/1999/xlink" x="0px" y="0px"
	 viewBox="0 0 512 512" style="enable-background:new 0 0 512 512;" xml:space="preserve">
<rect x="338.83" y="304.74" style="fill:#FF7956;" width="165.67" height="97.49"/>
<g>
	<rect x="473.1" y="351.49" style="fill:#FF5023;" width="28.653" height="28.653"/>
	<rect x="424.42" y="351.49" style="fill:#FF5023;" width="28.653" height="28.653"/>
</g>
<g>
	<rect x="453.1" y="351.49" style="fill:#57A4FF;" width="28.653" height="28.653"/>
	<rect x="404.42" y="351.49" style="fill:#57A4FF;" width="28.653" height="28.653"/>
</g>
<rect x="7.5" y="304.74" style="fill:#B3D8F4;" width="165.67" height="97.49"/>
<rect x="173.17" y="304.74" style="fill:#57A4FF;" width="165.67" height="97.49"/>
<rect x="7.5" y="109.77" style="fill:#FFE477;" width="165.67" height="97.49"/>
<rect x="173.17" y="109.77" style="fill:#B3D8F4;" width="165.67" height="97.49"/>
<rect x="338.83" y="109.77" style="fill:#57A4FF;" width="165.67" height="97.49"/>
<rect x="90.33" y="207.26" style="fill:#FF3F62;" width="165.67" height="97.49"/>
<rect x="256" y="207.26" style="fill:#FFE477;" width="165.67" height="97.49"/>
<g>
	<rect x="453.1" y="351.49" style="fill:#006DF0;" width="28.653" height="28.653"/>
	<rect x="404.42" y="351.49" style="fill:#006DF0;" width="28.653" height="28.653"/>
</g>
<rect x="338.83" y="304.74" style="fill:#FF5023;" width="20" height="97.49"/>
<rect x="173.17" y="304.74" style="fill:#006DF0;" width="20" height="97.49"/>
<rect x="7.5" y="109.77" style="fill:#FFD422;" width="40" height="97.49"/>
<g>
	<rect x="7.5" y="304.74" style="fill:#78B9EB;" width="40" height="97.49"/>
	<rect x="173.17" y="109.77" style="fill:#78B9EB;" width="20" height="97.49"/>
</g>
<rect x="338.83" y="109.77" style="fill:#006DF0;" width="20" height="97.49"/>
<rect x="90.33" y="207.26" style="fill:#C70024;" width="40" height="97.49"/>
<rect x="256" y="207.26" style="fill:#FFD422;" width="20" height="97.49"/>
<g>
	<path style="fill:#1D1D1F;" d="M445.598,387.64h43.652v-43.653h-43.652V387.64z M460.598,358.987h13.652v13.653h-13.652V358.987z"
		/>
	<path style="fill:#1D1D1F;" d="M396.924,387.64h43.653v-43.653h-43.653V387.64z M411.924,358.987h13.653v13.653h-13.653V358.987z"
		/>
	<rect x="75.04" y="144.91" style="fill:#1D1D1F;" width="15" height="15"/>
	<rect x="25.04" y="144.91" style="fill:#1D1D1F;" width="15" height="15"/>
	<rect x="50.04" y="144.91" style="fill:#1D1D1F;" width="15" height="15"/>
	<rect x="25.04" y="174.21" style="fill:#1D1D1F;" width="15" height="15"/>
	<rect x="75.04" y="174.21" style="fill:#1D1D1F;" width="15" height="15"/>
	<rect x="50.04" y="174.21" style="fill:#1D1D1F;" width="15" height="15"/>
	<rect x="349.2" y="274.56" style="fill:#1D1D1F;" width="15" height="15"/>
	<rect x="324.2" y="274.56" style="fill:#1D1D1F;" width="15" height="15"/>
	<rect x="274.2" y="274.56" style="fill:#1D1D1F;" width="15" height="15"/>
	<rect x="299.2" y="274.56" style="fill:#1D1D1F;" width="15" height="15"/>
</g>
<g>
	<rect x="469.75" y="129.56" style="fill:#FFFFFF;" width="15" height="15"/>
	<rect x="382.04" y="129.56" style="fill:#FFFFFF;" width="52.715" height="15"/>
	<rect x="444.75" y="129.56" style="fill:#FFFFFF;" width="15" height="15"/>
	<rect x="204.64" y="366.89" style="fill:#FFFFFF;" width="52.715" height="15"/>
	<rect x="267.36" y="366.89" style="fill:#FFFFFF;" width="15" height="15"/>
	<rect x="292.36" y="366.89" style="fill:#FFFFFF;" width="15" height="15"/>
	<rect x="132.37" y="227.06" style="fill:#FFFFFF;" width="15" height="15"/>
	<rect x="157.37" y="227.06" style="fill:#FFFFFF;" width="15" height="15"/>
	<rect x="182.37" y="227.06" style="fill:#FFFFFF;" width="52.715" height="15"/>
</g>
<g>
	<polygon style="fill:#1D1D1F;" points="42.83,385.389 42.83,326.969 27.83,326.92 27.83,385.34 	"/>
	<path style="fill:#1D1D1F;" d="M512,102.269H165.667v0.001H134.35l-0.05,15h31.367v82.486H82.833v0.003H15v-82.49h104.35
		l0.05-14.95L0,102.27v112.44l82.833,0.023v82.507H0.05L0,409.73h115.17l0.05-15H15v-82.49h67.833v0.004h82.833v82.486H130.17
		l-0.05,14.95l35.547,0.035v0.016h180.667v-0.048L512,409.73V297.24h-46.32l-0.05,15H497v82.49H346.333v-82.486h82.834v-0.004
		h21.513l0.05-14.95l-21.563-0.009v-82.525H512V102.269z M331.333,199.756H180.67v-82.487h150.663V199.756z M97.833,214.756h70.438
		l12.399,0.003v-0.003h67.83v82.487h-67.83v-0.004H97.833V214.756z M331.33,394.731H180.67v-82.488h150.66L331.33,394.731
		L331.33,394.731z M414.167,297.243h-73.563l-9.274-0.004v0.004H263.5v-82.487h150.667V297.243z M497,199.756H346.333v-82.487H497
		V199.756z"/>
	<polygon style="fill:#1D1D1F;" points="141.25,154.76 141.25,186.81 156.25,186.86 156.25,154.81 	"/>
	<polygon style="fill:#1D1D1F;" points="260.72,189.21 260.72,174.21 197.67,174.21 197.62,189.159 	"/>
	<polygon style="fill:#1D1D1F;" points="401.47,225.06 348,225.06 347.95,240.01 401.47,240.06 	"/>
	<polygon style="fill:#1D1D1F;" points="157.38,320.73 117.33,320.73 117.28,335.679 157.38,335.73 	"/>
</g>
<g>
</g>
<g>
</g>
<g>
</g>
<g>
</g>
<g>
</g>
<g>
</g>
<g>
</g>
<g>
</g>
<g>
</g>
<g>
</g>
<g>
</g>
<g>
</g>
<g>
</g>
<g>
</g>
<g>
</g>
</svg>
