<svg xmlns="http://www.w3.org/2000/svg" viewBox="0 0 512 512"><path fill="#ff7956" d="M338.83 304.74H504.5v97.49H338.83z"/><path d="M473.1 351.49h28.653v28.653H473.1zm-48.68 0h28.653v28.653H424.42z" fill="#ff5023"/><path d="M453.1 351.49h28.653v28.653H453.1zm-48.68 0h28.653v28.653H404.42z" fill="#57a4ff"/><path fill="#b3d8f4" d="M7.5 304.74h165.67v97.49H7.5z"/><path fill="#57a4ff" d="M173.17 304.74h165.67v97.49H173.17z"/><path fill="#ffe477" d="M7.5 109.77h165.67v97.49H7.5z"/><path fill="#b3d8f4" d="M173.17 109.77h165.67v97.49H173.17z"/><path fill="#57a4ff" d="M338.83 109.77H504.5v97.49H338.83z"/><path fill="#ff3f62" d="M90.33 207.26H256v97.49H90.33z"/><path fill="#ffe477" d="M256 207.26h165.67v97.49H256z"/><path d="M453.1 351.49h28.653v28.653H453.1zm-48.68 0h28.653v28.653H404.42z" fill="#006df0"/><path fill="#ff5023" d="M338.83 304.74h20v97.49h-20z"/><path fill="#006df0" d="M173.17 304.74h20v97.49h-20z"/><path fill="#ffd422" d="M7.5 109.77h40v97.49h-40z"/><path d="M7.5 304.74h40v97.49h-40zm165.67-194.97h20v97.49h-20z" fill="#78b9eb"/><path fill="#006df0" d="M338.83 109.77h20v97.49h-20z"/><path fill="#c70024" d="M90.33 207.26h40v97.49h-40z"/><path fill="#ffd422" d="M256 207.26h20v97.49h-20z"/><path d="M445.598 387.64h43.652v-43.653h-43.652v43.653zm15-28.653h13.652v13.653h-13.652v-13.653zm-63.674 28.653h43.653v-43.653h-43.653v43.653zm15-28.653h13.653v13.653h-13.653v-13.653zM75.04 144.91h15v15h-15zm-50 0h15v15h-15zm25 0h15v15h-15zm-25 29.3h15v15h-15zm50 0h15v15h-15zm-25 0h15v15h-15zM349.2 274.56h15v15h-15zm-25 0h15v15h-15zm-50 0h15v15h-15zm25 0h15v15h-15z" fill="#1d1d1f"/><path d="M469.75 129.56h15v15h-15zm-87.71 0h52.715v15H382.04zm62.71 0h15v15h-15zM204.64 366.89h52.715v15H204.64zm62.72 0h15v15h-15zm25 0h15v15h-15zM132.37 227.06h15v15h-15zm25 0h15v15h-15zm25 0h52.715v15H182.37z" fill="#fff"/><g fill="#1d1d1f"><path d="M42.83 385.389v-58.42l-15-.049v58.42z"/><path d="M512 102.269H165.667v.001H134.35l-.05 15h31.367v82.486H82.833v.003H15v-82.49h104.35l.05-14.95L0 102.27v112.44l82.833.023v82.507H.05L0 409.73h115.17l.05-15H15v-82.49h67.833v.004h82.833v82.486H130.17l-.05 14.95 35.547.035v.016h180.667v-.048L512 409.73V297.24h-46.32l-.05 15H497v82.49H346.333v-82.486h82.834v-.004h21.513l.05-14.95-21.563-.009v-82.525H512V102.269zm-180.667 97.487H180.67v-82.487h150.663v82.487zm-233.5 15h70.438l12.399.003v-.003h67.83v82.487h-67.83v-.004H97.833v-82.483zM331.33 394.731H180.67v-82.488h150.66v82.488zm82.837-97.488h-73.563l-9.274-.004v.004H263.5v-82.487h150.667v82.487zM497 199.756H346.333v-82.487H497v82.487z"/><path d="M141.25 154.76v32.05l15 .05v-32.05zm119.47 34.45v-15h-63.05l-.05 14.949zm140.75 35.85H348l-.05 14.95 53.52.05zm-244.09 95.67h-40.05l-.05 14.949 40.1.051z"/></g></svg>