<svg xmlns="http://www.w3.org/2000/svg" viewBox="0 0 626.3 202"><path fill="#FFCF00" d="M456.9 195.3L424.7 41.1c-.7-3.2 1.4-6.4 4.6-7.1L583.6 1.9c3.2-.7 6.4 1.4 7.1 4.6l32.1 154.2c.7 3.2-1.4 6.4-4.6 7.1L463.9 200c-3.2.6-6.4-1.4-7-4.7z"/><path fill="#FFF" d="M560.5 126c1.5 0 2.4-.7 2.7-2.1.4-1.9-.2-2.8-1.9-2.8h-11.5c-5.7 0-10.1-1.9-13.2-5.8-2.3-2.8-3.4-6.4-3.4-10.6 0-1.4.1-2.8.4-4.4l1-5.6c1.7-10.6 8.2-16 19.6-16 15.1 0 24.6.3 28.5 1 3.8.7 6.2 1.8 7.2 3.3l-2.3 14h-26.9c-1.2 0-2 .2-2.3.5-.3.3-.6.9-.7 1.8-.2.9-.2 1.5-.1 1.8.1.3.3.5.6.5.5.2 1.1.2 1.8.2h12c6.3 0 10.6 1.9 13.1 5.8 1.8 2.9 2.7 6.2 2.7 9.8 0 1.4-.1 2.8-.4 4.2l-1.1 7.1c-1.6 10.3-7.8 15.5-18.6 15.5H561c-3.5 0-6.5 0-9.1-.1-2.6 0-5.6-.2-9.2-.4-6.4-.4-10.5-1.7-12.2-4l2.2-13.8h27.8zm-68.7 50.3l15.3-96.8h23.4l-10.3 64.7c-.6 4.4-1.3 8.1-1.9 11.1-.6 3-1.7 6.5-3.2 10.6-1.5 4.1-3.3 7.6-5.5 10.5h-17.8zm22.1-122.8H532c1.6 0 2.4.7 2.4 2.2 0 .2 0 .5-.1.8L532 70.7c-.2 1.9-1.3 2.8-3.1 2.8h-18.1c-1.9 0-2.8-.9-2.5-2.8l2.3-14.1c.1-2.1 1.3-3.1 3.3-3.1zm-40.5 70.2H487c1.8 0 2.7.7 2.7 2.2 0 .2 0 .5-.1.8l-2.3 14.1c-.3 1.9-1.5 2.8-3.4 2.8h-13.7c-1.9 0-2.8-.9-2.5-2.8l2.3-14.1c.2-2 1.4-3 3.4-3z"/><path fill="#282517" d="M434.5 143.7l10.2-64.2h23.4L458 143.7h-23.5zm17-90.2h18.1c1.5 0 2.3.7 2.3 2.2 0 .2 0 .5-.1.8l-2.2 14.1c-.2 1.9-1.3 2.8-3.1 2.8h-18.1c-1.6 0-2.4-.7-2.4-2.2v-.6l2.2-14.1c.2-2 1.3-3 3.3-3zm-52.4 25c6 0 11.2 1.2 15.3 3.6l5.3-33.4h23.4l-15 94.9H408l-2.7-5.9c-3.1 2.3-5.8 3.9-8.2 5-2.4 1.1-5.3 1.6-8.6 1.6-7 0-11.9-3.5-14.6-10.4-1.6-3.9-2.4-8.3-2.4-12.9 0-4.7.4-9.3 1.3-14 1.8-9.9 4.5-17.1 8.2-21.7 3.9-4.5 9.9-6.8 18.1-6.8zm.8 19.7c-1.1 1.9-2.1 5.3-3 10.2-.8 4.9-1.3 8-1.3 9.3 0 1.3.1 2.6.2 3.9.1 1.3.5 2.2 1 2.8.6.6 1.5.9 2.8.9 4.1 0 6.8-.9 8.2-2.7l4.1-25.6c-.9-1.2-3.4-1.8-7.6-1.8-1.7.1-3.2 1.1-4.4 3zm-62.2 45.5l10.2-64.2h23.4l-10.2 64.2h-23.4zm17-90.2h18.1c1.5 0 2.3.7 2.3 2.2 0 .2 0 .5-.1.8l-2.2 14.1c-.2 1.9-1.3 2.8-3.1 2.8h-18.1c-1.6 0-2.4-.7-2.4-2.2v-.6l2.2-14.1c.2-2 1.3-3 3.3-3zm-121.8 90.2l23.4-88.5H289l-.4 49.7 15.2-49.7H337l-4.5 88.5h-23.1l2.4-48.2-15.2 48.2h-27.4l-.1-48.2-12.6 48.2h-23.6zm-15.1-65.2c11.4 0 17 6.8 17 20.3 0 5.2-.5 10.9-1.4 17.1-.9 6.2-2.1 11.2-3.6 14.9-1.5 3.7-3.3 6.5-5.6 8.5-2.3 1.9-4.7 3.3-7.3 4-2.6.7-5.7 1.1-9.2 1.1-3.6 0-6.4-.5-8.5-1.6-2.1-1-4.3-2.7-6.6-5.1l-4.5 5.9H168l15-94.9h23.4l-5.2 33.4c5.2-2.4 10.7-3.6 16.6-3.6zm-15.3 46.9c1.9 0 3.4-.9 4.5-2.8s2-5.2 2.8-10.2c.8-4.9 1.2-8 1.2-9.3 0-1.3 0-2.6-.1-3.9-.1-1.3-.4-2.3-1-3-.6-.6-1.5-1-2.8-1-4.1 0-6.8.6-8.1 1.8l-4.1 25.6c.8 1.9 3.3 2.8 7.6 2.8zm-60.7-47.1c17.9 0 26.8 6 26.8 18 0 5.2-.9 9.5-2.6 13.2-1.7 3.6-3.9 6.2-6.5 7.9-5 3.2-10.2 4.8-15.5 4.8h-1.5c-5.8-.3-9.7-.9-11.6-1.7-.1.6-.1 1.2-.1 1.7 0 1.7.6 2.9 1.8 3.6s4.9 1.1 11.1 1.1c6.2 0 13-.8 20.5-2.3l-2.9 16.4c-8.1 2.7-16.9 4-26.2 4-3.2 0-6.5-.2-9.9-.5-7.6-.6-12.8-4.4-15.6-11.2-1.6-3.9-2.4-8.2-2.4-13.1 0-4.8.5-9.8 1.5-15 1.9-10.2 5.1-17.3 9.4-21.1 4.4-3.8 12.3-5.7 23.7-5.8zm-8.9 27.2c1.3.4 2.6.6 3.9.6 1.3 0 2.4-.1 3.3-.2.8-.2 1.7-.6 2.6-1.5 1.3-1.1 1.9-2.8 1.9-5 0-2.5-1.4-3.7-4.1-3.7-2.6 0-4.4.8-5.4 2.5-1 1.6-1.8 4.1-2.2 7.3zM2.6 55.2h24.7l5 58.5L53 55.2h24.7L70 74.8l5.3 38.9 21.3-58.5H121l-35.7 88.5H58.1l-4.2-29.1-11.1 29.1H13.6l-11-88.5z"/></svg>